<svg width="61" height="14" viewBox="0 0 61 14" fill="none" xmlns="http://www.w3.org/2000/svg">
<path d="M1.17 13.63C1.038 13.63 0.918 13.582 0.81 13.486C0.714 13.39 0.666 13.276 0.666 13.144V10.264C0.666 10.132 0.714 10.018 0.81 9.92201C0.906 9.82601 1.02 9.77801 1.152 9.77801C1.584 9.77801 1.914 9.27401 2.142 8.26601C2.37 7.25801 2.484 5.80001 2.484 3.89201V1.33601C2.484 1.20401 2.532 1.09001 2.628 0.994012C2.724 0.898011 2.838 0.850011 2.97 0.850011H13.194C13.326 0.850011 13.44 0.898011 13.536 0.994012C13.632 1.09001 13.68 1.20401 13.68 1.33601V12.964C13.68 13.096 13.632 13.21 13.536 13.306C13.44 13.402 13.326 13.45 13.194 13.45H9.846C9.714 13.45 9.6 13.402 9.504 13.306C9.408 13.21 9.36 13.096 9.36 12.964V4.72001H6.624V5.63801C6.624 8.39801 6.162 10.42 5.238 11.704C4.314 12.988 2.958 13.63 1.17 13.63ZM29.639 8.24801C29.639 10.084 29.027 11.44 27.803 12.316C26.591 13.192 24.971 13.63 22.943 13.63C20.915 13.63 19.289 13.192 18.065 12.316C16.853 11.44 16.247 10.072 16.247 8.21201V6.08801C16.247 4.86401 16.535 3.85001 17.111 3.04601C17.699 2.23001 18.497 1.63001 19.505 1.24601C20.513 0.862012 21.659 0.670012 22.943 0.670012C24.227 0.670012 25.367 0.862012 26.363 1.24601C27.371 1.63001 28.169 2.22401 28.757 3.02801C29.345 3.83201 29.639 4.84001 29.639 6.05201V8.24801ZM21.107 8.59001C21.107 9.08201 21.269 9.46001 21.593 9.72401C21.929 9.98801 22.379 10.12 22.943 10.12C23.507 10.12 23.951 9.98801 24.275 9.72401C24.611 9.44801 24.779 9.06401 24.779 8.57201V5.72801C24.779 5.23601 24.611 4.85801 24.275 4.59401C23.951 4.31801 23.507 4.18001 22.943 4.18001C22.379 4.18001 21.929 4.31201 21.593 4.57601C21.269 4.84001 21.107 5.21801 21.107 5.71001V8.59001ZM38.7399 12.964C38.7399 13.096 38.6919 13.21 38.5959 13.306C38.4999 13.402 38.3859 13.45 38.2539 13.45H34.5459C34.4139 13.45 34.2999 13.402 34.2039 13.306C34.1079 13.21 34.0599 13.096 34.0599 12.964V1.33601C34.0599 1.20401 34.1079 1.09001 34.2039 0.994012C34.2999 0.898011 34.4139 0.850011 34.5459 0.850011H44.3199C44.4519 0.850011 44.5659 0.898011 44.6619 0.994012C44.7579 1.09001 44.8059 1.20401 44.8059 1.33601V4.23401C44.8059 4.36601 44.7579 4.48001 44.6619 4.57601C44.5659 4.67201 44.4519 4.72001 44.3199 4.72001H38.7219L38.7399 12.964ZM60.2249 8.24801C60.2249 10.084 59.6129 11.44 58.3889 12.316C57.1769 13.192 55.5569 13.63 53.5289 13.63C51.5009 13.63 49.8749 13.192 48.6509 12.316C47.4389 11.44 46.8329 10.072 46.8329 8.21201V6.08801C46.8329 4.86401 47.1209 3.85001 47.6969 3.04601C48.2849 2.23001 49.0829 1.63001 50.0909 1.24601C51.0989 0.862012 52.2449 0.670012 53.5289 0.670012C54.8129 0.670012 55.9529 0.862012 56.9489 1.24601C57.9569 1.63001 58.7549 2.22401 59.3429 3.02801C59.9309 3.83201 60.2249 4.84001 60.2249 6.05201V8.24801ZM51.6929 8.59001C51.6929 9.08201 51.8549 9.46001 52.1789 9.72401C52.5149 9.98801 52.9649 10.12 53.5289 10.12C54.0929 10.12 54.5369 9.98801 54.8609 9.72401C55.1969 9.44801 55.3649 9.06401 55.3649 8.57201V5.72801C55.3649 5.23601 55.1969 4.85801 54.8609 4.59401C54.5369 4.31801 54.0929 4.18001 53.5289 4.18001C52.9649 4.18001 52.5149 4.31201 52.1789 4.57601C51.8549 4.84001 51.6929 5.21801 51.6929 5.71001V8.59001Z" fill="white"/>
</svg>
